<?xml version="1.0" encoding="UTF-8"?>
<svg xmlns="http://www.w3.org/2000/svg" viewBox="0 0 30 30"><path fill="#333" d="M28 9.5C28 7.57 26.43 6 24.5 6h-19C3.57 6 2 7.57 2 9.5V23a.499.499 0 0 0 .5.5h25a.499.499 0 0 0 .5-.5V9.5zm-1 0v12.293l-7.043-7.043 6.627-6.627c.262.396.416.868.416 1.377zm-12.354 9.854a.498.498 0 0 0 .707 0l3.897-3.897 7.043 7.043H3.707l7.043-7.043 3.896 3.896zM24.5 7c.509 0 .981.154 1.377.416L15 18.293 4.123 7.416A2.483 2.483 0 0 1 5.5 7h19zM3.416 8.123l6.627 6.627L3 21.793V9.5c0-.509.155-.981.417-1.377z" style="fill: #000000;"/></svg>
